<svg width="32" height="32" viewBox="0 0 32 32" fill="none" xmlns="http://www.w3.org/2000/svg">
<path fill-rule="evenodd" clip-rule="evenodd" d="M15.0572 3.05718C15.5779 2.53648 16.4221 2.53648 16.9428 3.05718L28.9428 15.0572C29.3241 15.4385 29.4382 16.012 29.2318 16.5102C29.0255 17.0085 28.5393 17.3333 28 17.3333H25.3333C24.597 17.3333 24 16.7364 24 16C24 15.4282 24.3599 14.9406 24.8654 14.7511L16 5.88561L7.13455 14.7511C7.64013 14.9406 8 15.4282 8 16C8 16.7364 7.40304 17.3333 6.66667 17.3333H4C3.46072 17.3333 2.97453 17.0085 2.76816 16.5102C2.56178 16.012 2.67586 15.4385 3.05719 15.0572L15.0572 3.05718Z" fill="black"/>
<path fill-rule="evenodd" clip-rule="evenodd" d="M14.6666 18.6667C14.313 18.6667 13.9739 18.8071 13.7238 19.0572C13.4738 19.3072 13.3333 19.6464 13.3333 20V28C13.3333 28.7364 12.7363 29.3333 12 29.3333C11.2636 29.3333 10.6666 28.7364 10.6666 28V20C10.6666 18.9391 11.0881 17.9217 11.8382 17.1716C12.5883 16.4214 13.6058 16 14.6666 16H17.3333C18.3942 16 19.4116 16.4214 20.1617 17.1716C20.9119 17.9217 21.3333 18.9391 21.3333 20V28C21.3333 28.7364 20.7363 29.3333 20 29.3333C19.2636 29.3333 18.6666 28.7364 18.6666 28V20C18.6666 19.6464 18.5262 19.3072 18.2761 19.0572C18.0261 18.8071 17.6869 18.6667 17.3333 18.6667H14.6666Z" fill="black"/>
<path fill-rule="evenodd" clip-rule="evenodd" d="M8.00004 16C8.00004 15.2636 7.40309 14.6667 6.66671 14.6667C5.93033 14.6667 5.33337 15.2636 5.33337 16V25.3333C5.33337 26.3942 5.7548 27.4116 6.50495 28.1618C7.25509 28.9119 8.27251 29.3333 9.33337 29.3333H13.3378V26.6667H9.33337C8.97975 26.6667 8.64061 26.5262 8.39056 26.2761C8.14052 26.0261 8.00004 25.6869 8.00004 25.3333V16ZM18.6616 26.6667V29.3333H22.6667C23.7276 29.3333 24.745 28.9119 25.4951 28.1618C26.2453 27.4116 26.6667 26.3942 26.6667 25.3333V16C26.6667 15.2636 26.0698 14.6667 25.3334 14.6667C24.597 14.6667 24 15.2636 24 16V25.3333C24 25.6869 23.8596 26.0261 23.6095 26.2761C23.3595 26.5262 23.0203 26.6667 22.6667 26.6667H18.6616Z" fill="black"/>
</svg>
