<svg width="32" height="32" viewBox="0 0 32 32" fill="none" xmlns="http://www.w3.org/2000/svg">
<path fill-rule="evenodd" clip-rule="evenodd" d="M9.33337 5.33332C8.59699 5.33332 8.00004 5.93028 8.00004 6.66666V25.3333C8.00004 26.0697 8.59699 26.6667 9.33337 26.6667H22.6667C23.4031 26.6667 24 26.0697 24 25.3333V6.66666C24 5.93028 23.4031 5.33332 22.6667 5.33332H9.33337ZM5.33337 6.66666C5.33337 4.45752 7.12424 2.66666 9.33337 2.66666H22.6667C24.8758 2.66666 26.6667 4.45752 26.6667 6.66666V25.3333C26.6667 27.5425 24.8758 29.3333 22.6667 29.3333H9.33337C7.12424 29.3333 5.33337 27.5425 5.33337 25.3333V6.66666Z" fill="black"/>
<path fill-rule="evenodd" clip-rule="evenodd" d="M10.6666 9.33333C10.6666 8.59695 11.2636 8 12 8H20C20.7363 8 21.3333 8.59695 21.3333 9.33333C21.3333 10.0697 20.7363 10.6667 20 10.6667H12C11.2636 10.6667 10.6666 10.0697 10.6666 9.33333Z" fill="black"/>
<path fill-rule="evenodd" clip-rule="evenodd" d="M10.6666 14.6667C10.6666 13.9303 11.2636 13.3333 12 13.3333H20C20.7363 13.3333 21.3333 13.9303 21.3333 14.6667C21.3333 15.4031 20.7363 16 20 16H12C11.2636 16 10.6666 15.4031 10.6666 14.6667Z" fill="black"/>
<path fill-rule="evenodd" clip-rule="evenodd" d="M10.6666 20C10.6666 19.2636 11.2636 18.6667 12 18.6667H17.3333C18.0697 18.6667 18.6666 19.2636 18.6666 20C18.6666 20.7364 18.0697 21.3333 17.3333 21.3333H12C11.2636 21.3333 10.6666 20.7364 10.6666 20Z" fill="black"/>
</svg>
