<svg width="32" height="32" viewBox="0 0 32 32" fill="none" xmlns="http://www.w3.org/2000/svg">
<path fill-rule="evenodd" clip-rule="evenodd" d="M18.6666 10.6667C18.6666 9.9303 19.2636 9.33334 20 9.33334H20.0133C20.7497 9.33334 21.3466 9.9303 21.3466 10.6667C21.3466 11.4031 20.7497 12 20.0133 12H20C19.2636 12 18.6666 11.4031 18.6666 10.6667Z" fill="black"/>
<path fill-rule="evenodd" clip-rule="evenodd" d="M9.33333 6.66667C7.86057 6.66667 6.66667 7.86057 6.66667 9.33333V22.6667C6.66667 24.1394 7.86057 25.3333 9.33333 25.3333H22.6667C24.1394 25.3333 25.3333 24.1394 25.3333 22.6667V9.33333C25.3333 7.86057 24.1394 6.66667 22.6667 6.66667H9.33333ZM4 9.33333C4 6.38781 6.38781 4 9.33333 4H22.6667C25.6122 4 28 6.38781 28 9.33333V22.6667C28 25.6122 25.6122 28 22.6667 28H9.33333C6.38781 28 4 25.6122 4 22.6667V9.33333Z" fill="black"/>
<path fill-rule="evenodd" clip-rule="evenodd" d="M11.5996 15.6194L6.27614 20.9428C5.75544 21.4635 4.91122 21.4635 4.39052 20.9428C3.86983 20.4221 3.86983 19.5779 4.39052 19.0572L9.72386 13.7238L9.74217 13.7059C10.5453 12.933 11.5523 12.4402 12.6667 12.4402C13.7811 12.4402 14.788 12.933 15.5912 13.7059L15.6095 13.7238L22.2761 20.3905C22.7968 20.9112 22.7968 21.7554 22.2761 22.2761C21.7554 22.7968 20.9112 22.7968 20.3905 22.2761L13.7338 15.6194C13.3241 15.2284 12.9546 15.1068 12.6667 15.1068C12.3787 15.1068 12.0092 15.2284 11.5996 15.6194Z" fill="black"/>
<path fill-rule="evenodd" clip-rule="evenodd" d="M20.9329 18.2861L19.6095 19.6095C19.0888 20.1302 18.2446 20.1302 17.7239 19.6095C17.2032 19.0888 17.2032 18.2446 17.7239 17.7239L19.0572 16.3905L19.0755 16.3726C19.8787 15.5997 20.8856 15.1068 22 15.1068C23.1144 15.1068 24.1214 15.5997 24.9245 16.3726L24.9428 16.3905L27.6095 19.0572C28.1302 19.5779 28.1302 20.4221 27.6095 20.9428C27.0888 21.4635 26.2446 21.4635 25.7239 20.9428L23.0672 18.2861C22.6575 17.895 22.288 17.7735 22 17.7735C21.7121 17.7735 21.3426 17.895 20.9329 18.2861Z" fill="black"/>
</svg>
