<svg width="32" height="32" viewBox="0 0 32 32" fill="none" xmlns="http://www.w3.org/2000/svg">
<g clip-path="url(#clip0_15_371)">
<path d="M16 0C7.1625 0 0 7.1625 0 16C0 24.8375 7.1625 32 16 32C24.8375 32 32 24.8375 32 16C32 7.1625 24.8375 0 16 0ZM23.2812 17.2812L14.2812 22.7812C14.0438 22.925 13.7688 23 13.5 23C12.6444 23 12 22.3 12 21.5V10.5C12 9.70625 12.6375 9 13.5 9C13.7715 9 14.0424 9.0735 14.2819 9.21975L23.2819 14.7198C23.725 14.9938 24 15.475 24 16C24 16.525 23.725 17.0062 23.2812 17.2812Z" fill="black"/>
</g>
<defs>
<clipPath id="clip0_15_371">
<rect width="32" height="32" fill="white"/>
</clipPath>
</defs>
</svg>
