<svg width="32" height="32" viewBox="0 0 32 32" fill="none" xmlns="http://www.w3.org/2000/svg">
<path fill-rule="evenodd" clip-rule="evenodd" d="M25.0755 5.7405L23.7793 7.68183C26.1488 9.60683 27.6667 12.5422 27.6667 15.8333C27.6667 19.1257 26.1488 22.061 23.7793 23.986L25.0755 25.9262C28.0692 23.5788 30 19.9353 30 15.8333C30 11.7325 28.0703 8.089 25.0755 5.7405ZM22.475 9.63483L21.166 11.5948C22.2953 12.66 23.0093 14.1592 23.0093 15.8345C23.0093 17.5098 22.2953 19.0102 21.166 20.0753L22.475 22.0353C24.2215 20.535 25.3333 18.316 25.3333 15.8333C25.3333 13.3518 24.2227 11.1328 22.475 9.63483ZM16 3C14.6268 3 14.2115 3.798 14.2115 3.798C14.2115 3.798 10.6403 7.7215 8.181 9.45283C7.72833 9.741 7.23133 10 6.35167 10H4.33333C3.04533 10 2 11.0453 2 12.3333V19.3333C2 20.6213 3.04533 21.6667 4.33333 21.6667H6.35167C7.23133 21.6667 7.72833 21.9257 8.17983 22.2138C10.6392 23.9452 14.2103 27.8698 14.2103 27.8698C14.2103 27.8698 14.6268 28.6667 16 28.6667C17.288 28.6667 18.3333 27.6225 18.3333 26.3333V5.33333C18.3333 4.04417 17.288 3 16 3Z" fill="black"/>
</svg>
